<svg width="116" height="26" viewBox="0 0 116 26" fill="none" xmlns="http://www.w3.org/2000/svg"><path fill="currentColor" d="M24.267 13.367c-.19 6.416-5.354 11.578-11.77 11.767.192-6.365 5.342-11.498 11.77-11.767ZM11.676 25.132C5.299 24.895.183 19.742 0 13.353h11.676v11.779Zm40.686-20.03H40.134v6.119h10.655v3.037H40.134v6.312h12.448v3.037H36.278V2.064h16.084v3.038Zm39.358 5.923h-2.251c-2.77 0-3.982 1.39-3.982 4.309v8.273h-3.73V8.152h3.571v1.78h.253c.582-1.121 1.653-1.84 3.872-1.84h2.267v2.933Zm15.342 2.348h.25l4.36-5.22h3.777v.449l-5.995 7.18 5.729 7.376v.45h-3.84l-4.219-5.431h-.25l-4.532 5.43h-3.793v-.449l6.184-7.405-5.57-7.151v-.45h3.855l4.044 5.221Zm-43.56-5.55c3.84 0 6.201 1.87 6.201 5.67v10.112h-3.73v-9.8c0-2.139-1.212-3.14-3.415-3.14-2.408 0-4.313 1.301-4.313 4.293v8.647h-3.73V8.152h3.606v1.705h.251c1.117-1.45 2.928-2.034 5.13-2.034Zm11.867.33h4.595v2.737h-4.595v9.545l.253.238h4.266v2.933h-3.763c-2.817 0-4.484-1.378-4.484-4.01V8.152h-.002v-4.1h3.73v4.1Zm21.606 15.452h-3.73V8.152h3.73v15.454ZM11.772.867C11.578 7.232 6.429 12.367 0 12.636.19 6.219 5.354 1.056 11.771.867Zm.714 0c6.39.183 11.542 5.299 11.779 11.676H12.486V.867ZM97.101 5.85h-3.998V2.588h3.998V5.85Z"></path></svg>
