<?xml version="1.0" encoding="UTF-8" standalone="no"?>
<!DOCTYPE svg PUBLIC "-//W3C//DTD SVG 1.1//EN" "http://www.w3.org/Graphics/SVG/1.1/DTD/svg11.dtd">
<svg xmlns="http://www.w3.org/2000/svg" version="1.1" viewBox="30 105 245 85">
<g stroke-width="2.00" fill="none" stroke-linecap="butt" style="display:none">
<path stroke="#fbc68f" vector-effect="non-scaling-stroke" d="
  M 53.42 177.82
  L 53.42 149.80
  A 0.85 0.85 0.0 0 1 54.27 148.95
  L 76.31 148.95
  A 0.99 0.99 0.0 0 0 77.30 147.96
  L 77.30 139.99
  A 1.06 1.06 0.0 0 0 76.24 138.93
  L 54.32 138.93
  A 0.91 0.90 89.3 0 1 53.42 138.04
  C 53.25 130.66 52.32 121.78 62.21 121.38
  Q 71.11 121.01 71.93 130.54
  A 1.05 1.04 87.6 0 0 72.97 131.50
  L 82.06 131.50
  A 0.70 0.70 0.0 0 0 82.76 130.79
  C 82.65 119.66 76.27 111.73 65.33 111.14
  C 56.14 110.64 47.80 112.97 43.98 121.66
  Q 42.13 125.86 42.18 136.72
  Q 42.20 141.46 42.20 177.72
  A 0.73 0.73 0.0 0 0 42.93 178.45
  L 52.79 178.45
  A 0.63 0.63 0.0 0 0 53.42 177.82"
/>
<path stroke="#fbc68f" vector-effect="non-scaling-stroke" d="
  M 99.90 112.95
  A 0.82 0.82 0.0 0 0 99.08 112.13
  L 89.58 112.13
  A 0.82 0.82 0.0 0 0 88.76 112.95
  L 88.76 177.71
  A 0.82 0.82 0.0 0 0 89.58 178.53
  L 99.08 178.53
  A 0.82 0.82 0.0 0 0 99.90 177.71
  L 99.90 112.95"
/>
<path stroke="#fbc68f" vector-effect="non-scaling-stroke" d="
  M 155.85 165.24
  L 145.73 165.24
  A 2.39 2.37 21.9 0 0 144.02 165.96
  Q 139.93 170.16 131.54 169.45
  A 11.29 11.27 -19.2 0 1 124.30 165.95
  L 121.49 162.95
  A 2.20 2.20 0.0 0 1 123.09 159.24
  L 157.97 159.24
  A 0.37 0.37 0.0 0 0 158.34 158.92
  Q 159.83 146.55 151.46 137.81
  C 146.06 132.17 136.13 130.25 128.82 131.63
  C 116.03 134.04 108.54 143.70 108.94 156.50
  C 109.25 166.32 114.72 174.56 123.95 177.96
  C 136.41 182.55 150.62 178.40 156.35 166.03
  A 0.55 0.55 0.0 0 0 155.85 165.24"
/>
<path stroke="#fbc68f" vector-effect="non-scaling-stroke" d="
  M 250.88 171.25
  L 250.88 178.05
  A 0.51 0.51 0.0 0 0 251.39 178.56
  L 260.57 178.56
  A 0.52 0.52 0.0 0 0 261.09 178.04
  Q 261.14 168.84 261.23 158.58
  Q 261.31 150.53 259.30 145.67
  C 254.28 133.50 240.50 128.45 228.37 132.37
  Q 213.52 137.16 211.76 153.02
  C 210.29 166.26 218.15 177.81 231.74 179.47
  Q 243.96 180.97 250.40 171.11
  A 0.26 0.26 0.0 0 1 250.88 171.25"
/>
<path stroke="#fbc68f" vector-effect="non-scaling-stroke" d="
  M 160.74 133.05
  L 176.21 154.03
  A 1.46 1.44 -45.6 0 1 176.22 155.73
  L 160.20 177.84
  A 0.39 0.39 0.0 0 0 160.51 178.46
  L 172.56 178.46
  A 0.78 0.78 0.0 0 0 173.21 178.11
  L 184.06 161.72
  A 0.81 0.80 -45.2 0 1 185.40 161.71
  Q 194.83 175.82 195.38 176.63
  Q 196.71 178.64 199.26 178.59
  Q 204.74 178.48 209.61 178.66
  A 0.38 0.38 0.0 0 0 209.93 178.06
  L 193.77 156.15
  A 1.80 1.78 -45.2 0 1 193.77 154.04
  L 208.81 133.28
  A 0.58 0.58 0.0 0 0 208.34 132.37
  L 197.40 132.37
  A 2.36 2.36 0.0 0 0 195.43 133.43
  L 185.62 148.24
  A 0.67 0.67 0.0 0 1 184.50 148.24
  L 174.69 133.46
  A 1.47 1.43 -4.3 0 0 174.08 132.95
  Q 173.09 132.50 170.50 132.41
  Q 165.57 132.23 161.08 132.35
  A 0.44 0.44 0.0 0 0 160.74 133.05"
/>
<path stroke="#fbc68f" vector-effect="non-scaling-stroke" d="
  M 121.32 150.40
  L 146.28 150.44
  A 0.02 0.02 0.0 0 0 146.30 150.42
  L 146.30 150.34
  A 12.39 8.88 0.1 0 0 133.93 141.44
  L 133.71 141.44
  A 12.39 8.88 0.1 0 0 121.30 150.30
  L 121.30 150.38
  A 0.02 0.02 0.0 0 0 121.32 150.40"
/>
<path stroke="#fbc68f" vector-effect="non-scaling-stroke" d="
  M 249.8988 154.3653
  A 12.25 12.25 0.0 0 0 237.9298 141.8405
  L 235.5504 141.7865
  A 12.25 12.25 0.0 0 0 223.0257 153.7554
  L 222.9612 156.5947
  A 12.25 12.25 0.0 0 0 234.9302 169.1195
  L 237.3096 169.1735
  A 12.25 12.25 0.0 0 0 249.8343 157.2046
  L 249.8988 154.3653"
/>
</g>
<!-- background removed for dark-bg usage -->
<path fill="#f68c1f" d="
  M 52.79 178.45
  L 42.93 178.45
  A 0.73 0.73 0.0 0 1 42.20 177.72
  Q 42.20 141.46 42.18 136.72
  Q 42.13 125.86 43.98 121.66
  C 47.80 112.97 56.14 110.64 65.33 111.14
  C 76.27 111.73 82.65 119.66 82.76 130.79
  A 0.70 0.70 0.0 0 1 82.06 131.50
  L 72.97 131.50
  A 1.05 1.04 87.6 0 1 71.93 130.54
  Q 71.11 121.01 62.21 121.38
  C 52.32 121.78 53.25 130.66 53.42 138.04
  A 0.91 0.90 89.3 0 0 54.32 138.93
  L 76.24 138.93
  A 1.06 1.06 0.0 0 1 77.30 139.99
  L 77.30 147.96
  A 0.99 0.99 0.0 0 1 76.31 148.95
  L 54.27 148.95
  A 0.85 0.85 0.0 0 0 53.42 149.80
  L 53.42 177.82
  A 0.63 0.63 0.0 0 1 52.79 178.45
  Z"
/>
<rect fill="#f68c1f" x="88.76" y="112.13" width="11.14" height="66.40" rx="0.82"/>
<path fill="#f68c1f" fill-rule="evenodd" d="
  M 155.85 165.24
  A 0.55 0.55 0.0 0 1 156.35 166.03
  C 150.62 178.40 136.41 182.55 123.95 177.96
  C 114.72 174.56 109.25 166.32 108.94 156.50
  C 108.54 143.70 116.03 134.04 128.82 131.63
  C 136.13 130.25 146.06 132.17 151.46 137.81
  Q 159.83 146.55 158.34 158.92
  A 0.37 0.37 0.0 0 1 157.97 159.24
  L 123.09 159.24
  A 2.20 2.20 0.0 0 0 121.49 162.95
  L 124.30 165.95
  A 11.29 11.27 -19.2 0 0 131.54 169.45
  Q 139.93 170.16 144.02 165.96
  A 2.39 2.37 21.9 0 1 145.73 165.24
  L 155.85 165.24
  Z
  M 121.32 150.40
  L 146.28 150.44
  A 0.02 0.02 0.0 0 0 146.30 150.42
  L 146.30 150.34
  A 12.39 8.88 0.1 0 0 133.93 141.44
  L 133.71 141.44
  A 12.39 8.88 0.1 0 0 121.30 150.30
  L 121.30 150.38
  A 0.02 0.02 0.0 0 0 121.32 150.40
  Z"
/>
<path fill="#f68c1f" fill-rule="evenodd" d="
  M 250.88 171.25
  A 0.26 0.26 0.0 0 0 250.40 171.11
  Q 243.96 180.97 231.74 179.47
  C 218.15 177.81 210.29 166.26 211.76 153.02
  Q 213.52 137.16 228.37 132.37
  C 240.50 128.45 254.28 133.50 259.30 145.67
  Q 261.31 150.53 261.23 158.58
  Q 261.14 168.84 261.09 178.04
  A 0.52 0.52 0.0 0 1 260.57 178.56
  L 251.39 178.56
  A 0.51 0.51 0.0 0 1 250.88 178.05
  L 250.88 171.25
  Z
  M 249.8988 154.3653
  A 12.25 12.25 0.0 0 0 237.9298 141.8405
  L 235.5504 141.7865
  A 12.25 12.25 0.0 0 0 223.0257 153.7554
  L 222.9612 156.5947
  A 12.25 12.25 0.0 0 0 234.9302 169.1195
  L 237.3096 169.1735
  A 12.25 12.25 0.0 0 0 249.8343 157.2046
  L 249.8988 154.3653
  Z"
/>
<path fill="#f68c1f" d="
  M 160.74 133.05
  A 0.44 0.44 0.0 0 1 161.08 132.35
  Q 165.57 132.23 170.50 132.41
  Q 173.09 132.50 174.08 132.95
  A 1.47 1.43 -4.3 0 1 174.69 133.46
  L 184.50 148.24
  A 0.67 0.67 0.0 0 0 185.62 148.24
  L 195.43 133.43
  A 2.36 2.36 0.0 0 1 197.40 132.37
  L 208.34 132.37
  A 0.58 0.58 0.0 0 1 208.81 133.28
  L 193.77 154.04
  A 1.80 1.78 -45.2 0 0 193.77 156.15
  L 209.93 178.06
  A 0.38 0.38 0.0 0 1 209.61 178.66
  Q 204.74 178.48 199.26 178.59
  Q 196.71 178.64 195.38 176.63
  Q 194.83 175.82 185.40 161.71
  A 0.81 0.80 -45.2 0 0 184.06 161.72
  L 173.21 178.11
  A 0.78 0.78 0.0 0 1 172.56 178.46
  L 160.51 178.46
  A 0.39 0.39 0.0 0 1 160.20 177.84
  L 176.22 155.73
  A 1.46 1.44 -45.6 0 0 176.21 154.03
  L 160.74 133.05
  Z"
/>
<!-- counters handled by evenodd on letter paths -->
</svg>
