# Low-poly cargo ship, local presentation asset.
o cargo_ship
v -5 -1 0
v 5 -1 0
v 6 0 0
v -6 0 0
v -4 -1 1.5
v 4 -1 1.5
v 5 0 1.5
v -5 0 1.5
v -2 -0.7 1.5
v 2 -0.7 1.5
v 2.5 -0.7 3
v -2.5 -0.7 3
v -2 -0.1 1.5
v 2 -0.1 1.5
v 2.5 -0.1 3
v -2.5 -0.1 3
v -1.4 -0.65 3
v 1.4 -0.65 3
v 1.4 -0.15 4
v -1.4 -0.15 4
f 1 2 3 4
f 5 8 7 6
f 1 5 6 2
f 2 6 7 3
f 3 7 8 4
f 4 8 5 1
f 9 10 11 12
f 13 16 15 14
f 9 13 14 10
f 10 14 15 11
f 11 15 16 12
f 12 16 13 9
f 17 18 19 20
f 17 20 16 12
f 18 11 15 19
f 17 12 11 18
